<svg xmlns="http://www.w3.org/2000/svg" width="32" height="32" viewBox="0 0 32 32" fill="none">
  <defs>
    <linearGradient id="g" x1="0" y1="0" x2="32" y2="0" gradientUnits="userSpaceOnUse">
      <stop stop-color="#1d4ed8"/>
      <stop offset="1" stop-color="#0891b2"/>
    </linearGradient>
  </defs>
  <rect x="2"  y="12" width="4" height="4"  rx="2" fill="url(#g)" opacity=".4"/>
  <rect x="8"  y="8"  width="4" height="8"  rx="2" fill="url(#g)" opacity=".65"/>
  <rect x="14" y="4"  width="4" height="12" rx="2" fill="url(#g)"/>
  <rect x="20" y="8"  width="4" height="8"  rx="2" fill="url(#g)" opacity=".65"/>
  <rect x="26" y="12" width="4" height="4"  rx="2" fill="url(#g)" opacity=".4"/>
  <line x1="0" y1="17.5" x2="32" y2="17.5" stroke="#404060" stroke-width="1"/>
  <rect x="2"  y="18" width="4" height="4"  rx="2" fill="url(#g)" opacity=".18"/>
  <rect x="8"  y="18" width="4" height="8"  rx="2" fill="url(#g)" opacity=".3"/>
  <rect x="14" y="18" width="4" height="12" rx="2" fill="url(#g)" opacity=".38"/>
  <rect x="20" y="18" width="4" height="8"  rx="2" fill="url(#g)" opacity=".3"/>
  <rect x="26" y="18" width="4" height="4"  rx="2" fill="url(#g)" opacity=".18"/>
</svg>
